<svg xmlns="http://www.w3.org/2000/svg" viewBox="0 0 512 512">
  <g>
    <path d="M332.3,136.2H179.7a44.21,44.21,0,0,0-44.2,44.2V333a44.21,44.21,0,0,0,44.2,44.2H332.3A44.21,44.21,0,0,0,376.5,333V180.4A44.21,44.21,0,0,0,332.3,136.2ZM256,336a79.3,79.3,0,1,1,79.3-79.3A79.42,79.42,0,0,1,256,336Zm81.9-142.2A18.8,18.8,0,1,1,356.7,175,18.78,18.78,0,0,1,337.9,193.8Z" />
    <path d="M256,210.9a45.8,45.8,0,1,0,45.8,45.8A45.86,45.86,0,0,0,256,210.9Z" />
    <path d="M256,0C114.6,0,0,114.6,0,256S114.6,512,256,512,512,397.4,512,256,397.4,0,256,0ZM410,333a77.78,77.78,0,0,1-77.7,77.7H179.7A77.78,77.78,0,0,1,102,333V180.4a77.84,77.84,0,0,1,77.7-77.7H332.3A77.84,77.84,0,0,1,410,180.4Z" />
  </g>
</svg>
