<svg xmlns="http://www.w3.org/2000/svg" viewBox="0 0 112.2 112.2">
  <g>
    <circle cx="56.1" cy="56.1" r="56.1" />
    <path d="M54,80.7h4.4a3.33,3.33,0,0,0,2-.9,3.37,3.37,0,0,0,.6-1.9s-.1-5.9,2.7-6.8,6.2,5.7,9.9,8.2c2.8,1.9,4.9,1.5,4.9,1.5l9.8-.1s5.1-.3,2.7-4.4c-.2-.3-1.4-3-7.3-8.5-6.2-5.7-5.3-4.8,2.1-14.7,4.5-6,6.3-9.7,5.8-11.3s-3.9-1.1-3.9-1.1l-11.1.1a2.32,2.32,0,0,0-1.4.3,3.58,3.58,0,0,0-1,1.2A60,60,0,0,1,70,50.9c-4.9,8.4-6.9,8.8-7.7,8.3-1.9-1.2-1.4-4.9-1.4-7.5,0-8.1,1.2-11.5-2.4-12.4a17.68,17.68,0,0,0-5.2-.5c-4,0-7.3,0-9.2.9-1.3.6-2.2,2-1.6,2.1a5.05,5.05,0,0,1,3.3,1.6c1.1,1.5,1.1,5,1.1,5s.7,9.6-1.5,10.7c-1.5.8-3.5-.8-7.9-8.4a67.05,67.05,0,0,1-4-8.2,2.82,2.82,0,0,0-.9-1.2,5.13,5.13,0,0,0-1.7-.7l-10.5.1s-1.6,0-2.2.7,0,1.9,0,1.9,8.2,19.3,17.6,29c8.5,9,18.2,8.4,18.2,8.4Z" />
  </g>
</svg>
