<svg xmlns="http://www.w3.org/2000/svg" viewBox="0 0 65.32 10.02"><defs><style>.cls-1{fill:#ffa650;}.cls-2{fill:#dbdbdb;}</style></defs><title>logo</title><g id="Слой_2" data-name="Слой 2"><g id="Слой_1-2" data-name="Слой 1"><g id="Слой_2-2" data-name="Слой 2"><g id="Слой_1-2-2" data-name="Слой 1-2"><path class="cls-1" d="M6.07,1.84A3,3,0,0,1,7.4,2.94a3,3,0,0,1,.47,1.68A3,3,0,0,1,7.4,6.3,3,3,0,0,1,6.07,7.4a5,5,0,0,1-2,.38H2.83V9.85H0V1.45H4A5,5,0,0,1,6.07,1.84ZM4.73,5.35A.92.92,0,0,0,5,4.62a.93.93,0,0,0-.29-.73,1.26,1.26,0,0,0-.86-.26h-1v2h1A1.26,1.26,0,0,0,4.73,5.35Z"/><path class="cls-1" d="M9,2.37a1.25,1.25,0,0,1-.45-1A1.25,1.25,0,0,1,9,.39,1.74,1.74,0,0,1,10.19,0a1.79,1.79,0,0,1,1.19.37,1.19,1.19,0,0,1,.44,1,1.32,1.32,0,0,1-.44,1,1.7,1.7,0,0,1-1.19.4A1.74,1.74,0,0,1,9,2.37Zm-.17.92h2.71V9.85H8.83Z"/><path class="cls-1" d="M18.77,7.87v2H12.5V8.29l2.71-3H12.6v-2h6V4.85l-2.71,3Z"/><path class="cls-1" d="M25.61,7.87v2H19.34V8.29l2.71-3H19.44v-2h6V4.85l-2.71,3Z"/><path class="cls-1" d="M32,3.94a3,3,0,0,1,.91,2.38V9.85H30.4V9a1.85,1.85,0,0,1-1.86,1,3,3,0,0,1-1.33-.27,1.9,1.9,0,0,1-1.11-1.8,1.67,1.67,0,0,1,.74-1.48A4.06,4.06,0,0,1,29.1,6h1.09q-.13-.77-1.24-.77a3.09,3.09,0,0,0-.9.14,2.52,2.52,0,0,0-.78.38L26.41,4a4.77,4.77,0,0,1,1.36-.55,6.56,6.56,0,0,1,1.59-.2A4,4,0,0,1,32,3.94ZM29.87,8.18a.9.9,0,0,0,.34-.47V7.26h-.67q-.83,0-.83.55a.48.48,0,0,0,.17.38.7.7,0,0,0,.47.15A.89.89,0,0,0,29.87,8.18Z"/><path class="cls-2" d="M36,3.65H33.54V1.45h7.75v2.2H38.83v6.2H36Z"/><path class="cls-2" d="M42,2.37a1.25,1.25,0,0,1-.45-1,1.25,1.25,0,0,1,.45-1A1.74,1.74,0,0,1,43.18,0a1.79,1.79,0,0,1,1.19.37,1.19,1.19,0,0,1,.44,1,1.32,1.32,0,0,1-.44,1,1.7,1.7,0,0,1-1.19.4A1.74,1.74,0,0,1,42,2.37Zm-.17.92h2.71V9.85H41.82Z"/><path class="cls-2" d="M56.32,3.9A3,3,0,0,1,57,6.11V9.85H54.32V6.58q0-1.13-.73-1.13a.76.76,0,0,0-.62.29,1.44,1.44,0,0,0-.23.91v3.2H50V6.58q0-1.13-.73-1.13a.76.76,0,0,0-.62.29,1.44,1.44,0,0,0-.23.91v3.2H45.73V3.29h2.58V3.9a2.52,2.52,0,0,1,1.86-.73,2.78,2.78,0,0,1,1.19.25,2.08,2.08,0,0,1,.86.75,2.67,2.67,0,0,1,1-.74,2.93,2.93,0,0,1,1.24-.26A2.54,2.54,0,0,1,56.32,3.9Z"/><path class="cls-2" d="M65.28,7.2H60.72a1.11,1.11,0,0,0,.48.57A1.64,1.64,0,0,0,62,8a2.11,2.11,0,0,0,.73-.11,2.54,2.54,0,0,0,.64-.37L64.79,9A3.68,3.68,0,0,1,62,10a4.72,4.72,0,0,1-2.09-.44,3.31,3.31,0,0,1-1.39-1.22A3.21,3.21,0,0,1,58,6.56a3.24,3.24,0,0,1,.49-1.76A3.32,3.32,0,0,1,59.8,3.6a4.39,4.39,0,0,1,3.72,0,3.13,3.13,0,0,1,1.31,1.16,3.36,3.36,0,0,1,.49,1.84S65.3,6.82,65.28,7.2ZM61,5.24a1.08,1.08,0,0,0-.36.65h2.11a1.1,1.1,0,0,0-.36-.64,1,1,0,0,0-.7-.23A1.06,1.06,0,0,0,61,5.24Z"/></g></g></g></g></svg>