<svg xmlns="http://www.w3.org/2000/svg" viewBox="0 0 477.24 512"><defs><style>.cls-1{fill:#ffe09f;}.cls-2{fill:#fff0af;}.cls-3{fill:#fff5d7;}.cls-4{fill:#e5646e;}.cls-5{fill:#db4655;}.cls-6{fill:#ffc269;}.cls-7{fill:#bd4150;}</style></defs><title>marker</title><g id="Слой_2" data-name="Слой 2"><g id="Capa_1" data-name="Capa 1"><path class="cls-1" d="M26.82,80.93,238.61,504.5,451,79.64,326.79,31.55H142.42Z"/><path class="cls-2" d="M331.5,113.66c-31.06-6.78-59.68-42-92.88-42s-61.82,35.25-92.88,42c-31.92,7-73.34-12.45-102.25.59L238.61,504.5,433.74,114.25c-28.92-13-70.33,6.38-102.24-.59Z"/><path class="cls-3" d="M238.62,223.93a279.29,279.29,0,0,0-125.47,29.63L238.61,504.5,364.08,253.56a279.3,279.3,0,0,0-125.46-29.63Z"/><circle class="cls-4" cx="278.7" cy="352.19" r="40.08"/><circle class="cls-5" cx="142.42" cy="223.93" r="56.11"/><path class="cls-6" d="M460.89,60A496.84,496.84,0,0,0,16.35,60,16,16,0,0,0,30.71,88.66a464.77,464.77,0,0,1,415.81,0A16,16,0,1,0,460.89,60Z"/><circle class="cls-5" cx="294.73" cy="183.85" r="32.07"/><path class="cls-7" d="M310.76,199.89a32,32,0,0,1-29.18-45.21A32,32,0,1,0,323.91,197,31.82,31.82,0,0,1,310.76,199.89Z"/><path d="M464.25,53.29A499.25,499.25,0,0,0,238.62,0,499.25,499.25,0,0,0,13,53.29,23.55,23.55,0,0,0,23.56,97.87a23.32,23.32,0,0,0,3.24-.24l54.45,108.9a63.54,63.54,0,0,0,38.39,76.78L231.91,507.86a7.5,7.5,0,0,0,13.42,0L302.6,393.31a47.6,47.6,0,0,0,23.68-41.12,48.79,48.79,0,0,0-.32-5.6l124.49-249a23.18,23.18,0,0,0,3.25.24,23.54,23.54,0,0,0,10.55-44.58Zm-2.91,24.86A8.52,8.52,0,0,1,449.91,82h0l0,0c-6.34-3.18-12.83-6.25-19.27-9.13a7.5,7.5,0,1,0-6.12,13.7c4,1.79,8,3.65,12,5.57l-7.59,15.18c-17.23-7.89-37.49-5-57.11-2.28-15.33,2.16-29.81,4.2-42.24,1.37-11.78-2.68-23.59-10.6-36.1-19-17-11.42-34.65-23.23-54.79-23.23s-37.75,11.81-54.79,23.23c-12.51,8.39-24.33,16.31-36.1,19-9.43,2.14-20.2,1.35-28.52.43a7.5,7.5,0,0,0-1.66,14.91c9.5,1.06,21.88,1.93,33.51-.71,14.49-3.29,28-12.37,41.13-21.15C208.06,89.18,223,79.13,238.62,79.13s30.56,10.05,46.43,20.69c13.1,8.78,26.64,17.86,41.13,21.15,15.12,3.44,31.66,1.11,47.66-1.15,18.05-2.54,35.12-4.93,48.29.87L319,326.9a47.81,47.81,0,0,0-11.74-12.75,7.5,7.5,0,1,0-9,12,32.58,32.58,0,1,1-26.09-5.88,7.5,7.5,0,1,0-3-14.7,47.58,47.58,0,0,0-36.66,58.14L217.28,379a7.5,7.5,0,1,0,10.61,10.61L239,378.42a47.57,47.57,0,0,0,39.67,21.35c1.34,0,2.67-.07,4-.18l-44.07,88.14L162.16,334.82l22.72-7.57A7.5,7.5,0,1,0,180.13,313l-24.76,8.22-16.91-33.82c1.31.08,2.63.14,4,.14a63.63,63.63,0,0,0,54.52-96.41,7.5,7.5,0,1,0-12.85,7.74A48.56,48.56,0,1,1,163.25,180a7.5,7.5,0,0,0,6.43-13.55A63.6,63.6,0,0,0,89.27,189L72.84,156.17l15.84-5.28a7.5,7.5,0,1,0-4.74-14.23l-17.88,6-11-21.94c7.54-3.32,17-4.27,30.55-3.06A7.5,7.5,0,1,0,87,102.68c-11.2-1-25.63-1.35-38.6,4.58l-7.6-15.19a457.85,457.85,0,0,1,355.59-17A7.5,7.5,0,1,0,401.57,61,472.83,472.83,0,0,0,27.35,82,8.53,8.53,0,0,1,19.71,66.7a489.33,489.33,0,0,1,437.82,0,8.54,8.54,0,0,1,3.8,11.45Z"/><path d="M294.73,223.42a39.56,39.56,0,1,0-39.56-39.57A39.61,39.61,0,0,0,294.73,223.42Zm0-64.13a24.56,24.56,0,1,1-24.56,24.56A24.59,24.59,0,0,1,294.73,159.29Z"/><path d="M214.57,159.29a7.47,7.47,0,0,0,5.3-2.2l24-24a7.5,7.5,0,0,0-10.61-10.61l-24,24a7.5,7.5,0,0,0,5.3,12.8Z"/><path d="M313.48,242.68l-24,24A7.5,7.5,0,1,0,300,277.33l24-24a7.5,7.5,0,1,0-10.61-10.61Z"/><path d="M366.88,183.34a7.5,7.5,0,0,0,7.5-7.5v-24a7.5,7.5,0,0,0-15,0v24a7.5,7.5,0,0,0,7.5,7.5Z"/><path d="M226.44,241.74a7.5,7.5,0,0,0-2.08,10.4l16,24a7.5,7.5,0,1,0,12.48-8.32l-16-24a7.5,7.5,0,0,0-10.4-2.08Z"/><path d="M149.92,207.9v-8a7.5,7.5,0,0,0-15,0v8a7.5,7.5,0,0,0,15,0Z"/><path d="M270.1,355.72a7.5,7.5,0,0,0,0,15h.08a7.5,7.5,0,0,0-.08-15Z"/><path d="M153.15,234.66l-8,8a7.5,7.5,0,1,0,10.61,10.61l8-8a7.5,7.5,0,0,0-10.61-10.61Z"/><path d="M118.38,224.45h-.08a7.54,7.54,0,1,0,.08,0Z"/><path d="M290.14,333.17a7.54,7.54,0,1,0,.08,0Z"/></g></g></svg>